<svg width="48" height="48" viewBox="0 0 48 48" fill="none" xmlns="http://www.w3.org/2000/svg">
<path d="M30 31.5353C34.158 29.3683 37 25.017 37 20C37 12.8203 31.1797 7 24 7C16.8203 7 11 12.8203 11 20C11 25.017 13.8419 29.3683 18 31.5353V36C18 37.6569 19.3431 39 21 39H27C28.6569 39 30 37.6569 30 36V31.5353ZM29.501 31.7819C29.5013 31.7818 29.5016 31.7816 29.5019 31.7815C29.5016 31.7816 29.5013 31.7818 29.501 31.7819L29.501 31.7819Z" stroke="#348E2B" stroke-width="2"/>
<path d="M24 25L24 34" stroke="#348E2B" stroke-width="2" stroke-linecap="round"/>
<path d="M23.5465 24.0126L24.2772 24.0213L24.5075 23.3278C24.9671 21.9438 24.8095 20.3498 23.9369 19.0471C23.0614 17.74 21.6587 17.0174 20.213 17.0001L19.4823 16.9913L19.2519 17.6848C18.7923 19.0688 18.95 20.6628 19.8226 21.9655C20.6981 23.2727 22.1008 23.9952 23.5465 24.0126Z" fill="#70D767" stroke="#348E2B" stroke-width="2"/>
<path d="M25.2133 24.0126L24.4825 24.0213L24.2522 23.3278C23.7926 21.9438 23.9503 20.3498 24.8229 19.0471C25.6984 17.74 27.1011 17.0174 28.5468 17.0001L29.2775 16.9913L29.5078 17.6848C29.9674 19.0688 29.8098 20.6628 28.9372 21.9655C28.0616 23.2727 26.659 23.9952 25.2133 24.0126Z" fill="#70D767" stroke="#348E2B" stroke-width="2"/>
<path d="M19 35H29" stroke="#348E2B" stroke-width="2" stroke-linecap="round"/>
</svg>
